<svg xmlns="http://www.w3.org/2000/svg" viewBox="0 0 462.56 365.94"><defs><style>.cls-1,.cls-2{stroke:#000;stroke-miterlimit:10;}.cls-1{stroke-width:1.19px;}.cls-2{fill:none;stroke-width:1.05px;}*{fill:#1a1a1a;}</style></defs><title>Asset 1</title><g id="Layer_2" data-name="Layer 2"><g id="Layer_1-2" data-name="Layer 1"><path class="cls-1" d="M371.24,36.77c6-35.75-185-36.18-185-36.18S-4.76,1,1.24,36.77c0,0-16,328.58,111.33,328.58H259.91C387.24,365.35,371.24,36.77,371.24,36.77Zm-185,28.9c-99.41,0-180-12.94-180-28.9s80.59-28.9,180-28.9,180,12.94,180,28.9S285.65,65.67,186.24,65.67Z"/><path class="cls-2" d="M375.24,18.64"/><path class="cls-2" d="M438,141.89"/><path d="M327.59,259.5A73.09,73.09,0,1,0,357.24,119.6q-2.82,0-5.59.21l2.24-32.4q1.67-.05,3.35-.05a105.32,105.32,0,1,1-41.84,202Z"/></g></g></svg>