<svg xmlns="http://www.w3.org/2000/svg" viewBox="0 0 879 665.5">
    <title>Computer</title>
    <style type="text/css">
        * {
        fill: white;
        }
    </style>
        <g id="main-layer" data-name="main-layer">
            <path d="M862.15,519H16.85A16.87,16.87,0,0,1,0,502.15V16.85A16.87,16.87,0,0,1,16.85,0h845.3A16.87,16.87,0,0,1,879,16.85v485.3A16.87,16.87,0,0,1,862.15,519ZM16.85,15A1.85,1.85,0,0,0,15,16.85v485.3A1.85,1.85,0,0,0,16.85,504h845.3a1.85,1.85,0,0,0,1.85-1.85V16.85A1.85,1.85,0,0,0,862.15,15Z" />
            <rect x="350.5" y="511.5" width="178" height="144" />
            <path d="M691.5,665.5h-504a10,10,0,0,1,0-20h504a10,10,0,0,1,0,20Z" />
            <path d="M7.5,439.5v72h864v-72Zm432,62.89a26.89,26.89,0,1,1,26.89-26.89A26.89,26.89,0,0,1,439.5,502.39Z" />
            <circle cx="439.5" cy="475.5" r="19.61" />
            <path d="M224.5,77.12H80.5a5,5,0,0,1,0-10h144a5,5,0,0,1,0,10Z" />
            <path d="M179.5,104.12h-99a5,5,0,0,1,0-10h99a5,5,0,0,1,0,10Z" />
            <path d="M269.5,131.12H80.5a5,5,0,0,1,0-10h189a5,5,0,0,1,0,10Z" />
            <path d="M206.5,149.12H80.5a5,5,0,0,1,0-10h126a5,5,0,0,1,0,10Z" />
            <path d="M224.5,194.12H80.5a5,5,0,0,1,0-10h144a5,5,0,0,1,0,10Z" />
            <path d="M179.5,221.12h-99a5,5,0,0,1,0-10h99a5,5,0,0,1,0,10Z" />
            <path d="M269.5,248.12H80.5a5,5,0,0,1,0-10h189a5,5,0,0,1,0,10Z" />
            <path d="M206.5,266.12H80.5a5,5,0,0,1,0-10h126a5,5,0,0,1,0,10Z" />
            <path d="M224.5,311.12H80.5a5,5,0,0,1,0-10h144a5,5,0,0,1,0,10Z" />
            <path d="M179.5,338.12h-99a5,5,0,0,1,0-10h99a5,5,0,0,1,0,10Z" />
            <path d="M269.5,365.12H80.5a5,5,0,0,1,0-10h189a5,5,0,0,1,0,10Z" />
            <path d="M206.5,383.12H80.5a5,5,0,0,1,0-10h126a5,5,0,0,1,0,10Z" />
            <path d="M798.5,383.12h-430a5,5,0,0,1-5-5v-306a5,5,0,0,1,5-5h430a5,5,0,0,1,5,5v306A5,5,0,0,1,798.5,383.12Zm-425-10h420v-296h-420Z" />
            <path d="M798.5,383.12a5,5,0,0,1-2.9-.93l-430-306A5,5,0,1,1,371.4,68l430,306a5,5,0,0,1-2.9,9.07Z" />
            <path d="M368.5,383.12a5,5,0,0,1-2.9-9.07l430-306a5,5,0,1,1,5.8,8.15l-430,306A5,5,0,0,1,368.5,383.12Z" />
        </g>
</svg>