<svg xmlns="http://www.w3.org/2000/svg" viewBox="0 0 81.88 128.2"><defs><style>.cls-1{fill:none;stroke:#3fa083;stroke-miterlimit:10;stroke-width:2px;}</style></defs><title>Asset 1</title><g id="Layer_2" data-name="Layer 2"><g id="background"><path class="cls-1" d="M62.77,48.79,58,45.6l-3.73,3.2-2.13-2.13H50l-6.39,8.52-6.39-.53L34,56.25l-.53,2.66-4.79-1.06-3.2.53-3.73-1.06-.2.53-.93,1.28-.24-.05-4,2-1.06,4.79-.8.46.9-.06-.1.14.49-.17.78-.06.33.22L12.71,79.68l1.6-.53,7.46-5.33,7.46-4.26,3.73.53v1.07l-3.2,1.6-4.26,4.79-1.6,3.2h-1.6L21.23,77H20.16L12.71,87.14l-1.07,3.73-10.12,17L5.25,109l-1.6,6.39,7.46,7.46,2.66-1.6L18,123.35l.53,3.2,5.86-3.73v-3.2l3.2-3.2L34,97.79,30.81,93,34,89.27l3.73,1.6L42,87.14l-1.06-3.2,4.79-3.73,4.79-5.33L61.7,58.38l4.79-4.79,4.26-3.2V49.32L63.3,50.39ZM32.94,17.37l2.66-1.6-2.66-3.2-.53-3.2,3.2-4.26-.53-2.66L29.75,9.92l1.06,6.92Zm47.4,8.52L76.61,21.1,77.68,20,70.22,22.7l-1.6-1.06-4.79,3.2.53-9.05-1.6-2.66L56.91,7.79l-1.6,2.13,1.06,3.2-1.6,2.13L53.71,37.61l8.52,6.92,14.91-9.05L76.08,28Z"/></g></g></svg>