<svg xmlns="http://www.w3.org/2000/svg" viewBox="0 0 118.88 108.15"><style type="text/css">
    * {
    fill: #00457C;
    }
    </style><title>Asset 1</title><g id="Layer_2" data-name="Layer 2"><g id="Layer_1-2" data-name="Layer 1"><path d="M57,1.83c7.6,3.7,8.2,9.2,4,33.4L58.5,49H38.9l.6-3.8c.4-2,1.5-8.4,2.6-14.1s1.7-11.2,1.4-12.3c-1-2.9-4.1-4.1-7.9-2.8-4,1.3-5.3,3.9-7.2,14.5-.7,4.4-1.9,10.4-2.5,13.2l-1,5.3H5.8l.7-4.3c.6-3.7,3.4-19.5,6.6-37.5L14.2,1H32.1l-.7,3.7-.7,3.8,2.9-2.7C39.7.13,50.1-1.67,57,1.83Zm51.5-.7a19.74,19.74,0,0,1,7.42,4.15c2.7,2.7,3.18,4.35,2.88,6.95-.2,1.8-.6,3.2-1,3s-4.3-.2-8.7-.2c-7,0-7.9-.2-8.4-2-.9-3.5-9.7-2.5-9.7,1.1,0,1.9,2.7,2.9,15.3,6,5.3,1.3,10.3,5.3,11.2,9.1,1,4-1.3,10.5-4.9,14.2-4.3,4.2-11,6.6-20.6,7.3-14.1,1-24.1-4-24.4-12.4l-.1-3.8,8.7-.3c8.6-.3,8.7-.3,10,2.5,1.7,3.7,7.5,4.4,10.2,1.4,2.9-3.2,1.3-4.8-6.2-6.5-9.5-2.1-12.2-3.3-15.4-6.4-5.1-4.8-3.1-15,4-20.1C85.4.43,99.3-1.37,108.5,1.13ZM41.7,58.53c8.4,2.5,12.3,6.7,13.8,14.8l.7,3.7h-10c-9.9,0-10,0-10.6-2.5-1.4-5.5-8.6-5.1-12.9.7-2.3,3.1-3.9,11.5-2.8,15.5,1.5,5.5,9.8,5.7,12.9.3l1.7-3H54l-1.5,3.7c-4.1,9.9-15.3,16.3-28.3,16.3C8.4,108,0,100.83,0,87.33,0,67.43,21.5,52.53,41.7,58.53Zm65.6,1.3c6.3,2.9,8.9,6.2,9.5,12.2l.5,5h-9.6c-9.3,0-9.5,0-10.1-2.5-1.6-6.4-11.1-4.8-13.9,2.4-2.4,5.8-3,11.2-1.8,14.3,1.9,5.1,10,5,12.9-.2l1.7-3h9.8c5.3,0,9.7.2,9.7.5,0,1.9-4.4,8.6-7.7,11.8-6.9,6.7-21.6,9.7-32.6,6.6-4.7-1.3-10.6-6.3-12.3-10.6-4.6-10.8,1.7-27.2,13-34.2C84.7,56.93,98.5,55.93,107.3,59.83Z"/></g></g></svg>